<svg xmlns="http://www.w3.org/2000/svg" xml:space="preserve" style="enable-background:new 0 0 88 48" viewBox="0 0 88 48">
  <path d="M44 952.4c-17.9 0-33.8 9-43.6 22.8-.5.7-.5 1.6 0 2.3 9.9 13.8 25.7 22.8 43.6 22.8s33.8-9 43.6-22.8c.5-.7.5-1.6 0-2.3-9.8-13.9-25.7-22.8-43.6-22.8zm0 4c16 0 30.2 7.8 39.4 20-9.2 12.2-23.4 20-39.4 20s-30.2-7.8-39.4-20c9.2-12.2 23.4-20 39.4-20zm0 6c-7.7 0-14 6.3-14 14s6.3 14 14 14 14-6.3 14-14-6.3-14-14-14zm0 4c5.5 0 10 4.5 10 10s-4.5 10-10 10-10-4.5-10-10c0-5.6 4.5-10 10-10z" style="fill:#00dfc4" transform="translate(0 -952.36)"/>
</svg>